<?xml version="1.0" encoding="UTF-8" standalone="no"?>
<svg
   id="Layer_1"
   data-name="Layer 1"
   viewBox="0 0 566.92916 463.31654"
   version="1.1"
   sodipodi:docname="logo_nocolour.svg"
   width="150mm"
   height="122.58583mm"
   inkscape:version="1.4.2 (ebf0e940d0, 2025-05-08)"
   xmlns:inkscape="http://www.inkscape.org/namespaces/inkscape"
   xmlns:sodipodi="http://sodipodi.sourceforge.net/DTD/sodipodi-0.dtd"
   xmlns="http://www.w3.org/2000/svg"
   xmlns:svg="http://www.w3.org/2000/svg"
   xmlns:rdf="http://www.w3.org/1999/02/22-rdf-syntax-ns#"
   xmlns:cc="http://creativecommons.org/ns#"
   xmlns:dc="http://purl.org/dc/elements/1.1/">
  <sodipodi:namedview
     id="namedview16"
     pagecolor="#ffffff"
     bordercolor="#000000"
     borderopacity="0.25"
     inkscape:showpageshadow="2"
     inkscape:pageopacity="0.0"
     inkscape:pagecheckerboard="0"
     inkscape:deskcolor="#d1d1d1"
     inkscape:zoom="0.91248252"
     inkscape:cx="-301.92359"
     inkscape:cy="41.096678"
     inkscape:window-width="3483"
     inkscape:window-height="1385"
     inkscape:window-x="0"
     inkscape:window-y="0"
     inkscape:window-maximized="1"
     inkscape:current-layer="Layer_1"
     inkscape:document-units="mm" />
  <defs
     id="defs1">
    <linearGradient
       id="swatch16"
       inkscape:swatch="solid">
      <stop
         style="stop-color:#000000;stop-opacity:1;"
         offset="0"
         id="stop16" />
    </linearGradient>
    <style
       id="style1">.cls-1{fill:none;}</style>
  </defs>
  <title
     id="title1">logo_nocolour</title>
  <path
     class="cls-1"
     d="m 145.50269,156.81915 -5.36764,18.88377 H 109.67527 L 142.59252,65.763156 h 44.49327 L 220.45573,175.70292 H 190.578 l -5.69101,-18.88377 z m 19.9185,-68.874032 v 0 l -13.32211,47.532772 h 27.16159 z"
     id="path1"
     style="stroke:#000000;stroke-width:1.88976378;stroke-opacity:1;stroke-dasharray:none;fill:#ffffff;fill-opacity:1" />
  <path
     class="cls-1"
     d="m 213.14798,56.967975 h 35.76275 c 16.03828,0 23.8634,3.686216 23.8634,21.017895 0,11.576009 0,18.301735 -12.93409,21.405917 v 0.711373 a 11.57601,11.57601 0 0 1 12.48139,12.35206 v 13.96881 h -18.49574 v -9.76523 c 0,-5.17364 -2.06946,-8.66584 -7.63111,-8.66584 h -14.35685 v 18.43107 h -18.49574 z m 32.85259,34.92204 c 7.95446,0 7.69578,-2.97484 7.69578,-10.864634 0,-6.467045 -1.5521,-7.954465 -7.69578,-7.954465 h -14.35685 v 18.819099 z"
     id="path2"
     style="stroke:#000000;stroke-width:1.88976378;stroke-opacity:1;stroke-dasharray:none;fill:#ffffff;fill-opacity:1" />
  <path
     class="cls-1"
     d="M 299.67703,136.70664 H 281.11661 V 67.185905 h 29.5544 l 12.93408,43.652555 h 0.64671 l 12.61074,-43.652555 h 30.07176 v 69.520735 h -18.49575 l 1.81077,-53.288453 h -0.58203 l -17.65504,53.288453 h -15.9736 L 298.25428,83.418187 h -0.51736 z"
     id="path3"
     style="stroke:#000000;stroke-width:1.88976378;stroke-opacity:1;stroke-dasharray:none;fill:#ffffff;fill-opacity:1" />
  <path
     class="cls-1"
     d="m 438.4598,129.85157 v 42.61782 h -32.33521 v -42.61782 l -43.1352,-78.897946 h 37.12084 l 21.72927,46.821402 h 1.0994 l 22.37597,-46.821402 h 37.57353 z"
     id="path4"
     style="stroke:#000000;stroke-width:1.88976378;stroke-opacity:1;stroke-dasharray:none;fill:#ffffff;fill-opacity:1" />
  <path
     class="cls-1"
     d="m 257.70591,181.71726 v -14.48618 c 0,-15.77959 9.82991,-18.75443 23.66939,-18.75443 13.83947,0 23.66937,2.97484 23.66937,18.75443 v 14.48618 c 0,15.77959 -9.8299,18.75443 -23.66937,18.75443 -13.83948,0 -23.66939,-2.97484 -23.66939,-18.75443 z m 33.30528,-1.48742 v -11.57601 c 0,-7.56644 -2.52215,-8.27782 -9.63589,-8.27782 -7.11375,0 -9.44189,0.71138 -9.6359,8.27782 v 11.57601 c 0,7.63111 2.52215,8.40716 9.6359,8.40716 7.11374,0 9.89458,-0.77605 9.89458,-8.40716 z"
     id="path5"
     style="stroke:#000000;stroke-width:1.88976378;stroke-opacity:1;stroke-dasharray:none;fill:#ffffff;fill-opacity:1" />
  <path
     class="cls-1"
     d="m 321.27696,170.14125 h 20.88855 v 11.18799 h -20.88855 v 18.75443 H 307.6315 v -51.219 h 36.34478 v 11.18799 h -22.69932 z"
     id="path6"
     style="stroke:#000000;stroke-width:1.88976378;stroke-opacity:1;stroke-dasharray:none;fill:#ffffff;fill-opacity:1" />
  <path
     class="cls-1"
     d="m 187.79716,232.35422 h 48.63218 v 21.14723 h -48.63218 v 22.1173 h 52.83575 v 24.89812 H 157.53139 V 186.63221 h 82.00212 v 24.89813 h -51.73635 z"
     id="path7"
     style="stroke:#000000;stroke-width:1.88976378;stroke-opacity:1;stroke-dasharray:none;fill:#fe0000;fill-opacity:1" />
  <path
     class="cls-1"
     d="m 300.8411,210.81896 h 22.76399 l -24.25141,89.69791 h -34.66336 l -23.54004,-89.69791 h 22.56999 l 17.97838,69.13271 h 0.6467 z"
     id="path8"
     style="stroke:#000000;stroke-width:1.88976378;stroke-opacity:1;stroke-dasharray:none;fill:#fe0000;fill-opacity:1" />
  <path
     class="cls-1"
     d="m 349.08525,304.00907 h -22.24663 v -83.16619 h 22.24663 z"
     id="path9"
     style="stroke:#000000;stroke-width:1.88976378;stroke-opacity:1;stroke-dasharray:none;fill:#fe0000;fill-opacity:1" />
  <path
     class="cls-1"
     d="m 387.56417,273.0966 h 49.34354 v 27.42027 H 355.94032 V 182.23463 h 31.49451 z"
     id="path10"
     style="stroke:#000000;stroke-width:1.88976378;stroke-opacity:1;stroke-dasharray:none;fill:#fe0000;fill-opacity:1" />
  <path
     class="cls-1"
     d="m 62.013149,299.15879 h 58.203401 c 25.86818,0.45269 38.80227,6.07902 38.80227,34.40468 0,18.88377 0,29.94242 -21.47059,34.92203 v 1.22874 a 18.88377,18.88377 0 0 1 20.43586,20.11251 v 22.82867 h -30.26577 v -15.90893 c 0,-8.5365 -3.36286,-14.22749 -12.41673,-14.22749 H 91.826223 v 30.13642 H 61.560456 Z m 53.741141,57.03933 c 12.93409,0 12.54606,-4.78561 12.54606,-17.65503 0,-10.15326 -2.58681,-12.93409 -12.54606,-12.93409 H 92.278917 v 30.65379 z"
     id="path11"
     style="stroke:#000000;stroke-width:1.88976378;stroke-opacity:1;stroke-dasharray:none;fill:#ff0000;fill-opacity:1" />
  <path
     class="cls-1"
     d="m 164.83915,362.01846 v -19.40113 c 0,-21.40592 13.32212,-25.48015 32.33523,-25.48015 19.01311,0 32.33522,4.07423 32.33522,25.48015 v 19.40113 c 0,21.40592 -13.32211,25.48016 -32.33522,25.48016 -19.01311,0 -32.33523,-4.07424 -32.33523,-25.48016 z m 45.26931,-2.06945 v -15.65025 c 0,-10.2826 -3.42753,-11.25266 -12.93408,-11.25266 -9.50656,0 -12.93409,0.97006 -12.93409,11.25266 v 15.65025 c 0,10.41194 3.42753,11.382 12.93409,11.382 9.50655,0 12.86941,-0.97006 12.86941,-11.382 z"
     id="path12"
     style="stroke:#000000;stroke-width:1.88976378;stroke-opacity:1;stroke-dasharray:none;fill:#ff0000;fill-opacity:1" />
  <path
     class="cls-1"
     d="m 233.77785,313.96832 h 40.41903 c 15.26222,0 24.25141,2.8455 24.25141,19.40114 0,9.70056 -1.94011,16.10293 -12.09337,17.7197 v 0.84071 c 11.382,0.71138 13.32211,7.56644 13.32211,17.20234 0,18.88377 -8.79518,21.40592 -25.09213,21.40592 h -40.80705 z m 20.50053,30.71847 h 14.74486 c 7.24309,0 8.92452,-1.22874 8.92452,-7.37244 0,-4.5916 -0.71138,-6.46704 -6.46704,-6.46704 h -17.26701 z m 0,29.2957 h 15.5209 c 6.46705,0 9.44189,-1.48741 9.44189,-7.76045 0,-6.27303 -2.39281,-7.30776 -9.05386,-7.30776 h -15.90893 z"
     id="path13"
     style="stroke:#000000;stroke-width:1.88976378;stroke-opacity:1;stroke-dasharray:none;fill:#ff0000;fill-opacity:1" />
  <path
     class="cls-1"
     d="m 305.23869,373.85315 v -21.66459 c 0,-23.54005 14.68019,-28.00231 35.37474,-28.00231 20.69453,0 35.4394,4.46226 35.4394,28.00231 v 21.66459 c 0,23.54004 -14.74487,28.06698 -35.4394,28.06698 -20.69455,0 -35.37474,-4.78562 -35.37474,-28.06698 z m 49.73157,-2.26346 v -17.13767 c 0,-11.382 -3.75089,-12.4814 -14.35683,-12.4814 -10.60596,0 -14.09817,1.0994 -14.35685,12.4814 v 17.20234 c 0,11.44667 3.75089,12.54606 14.35685,12.54606 10.60594,0 14.35683,-1.42274 14.35683,-12.86941 z"
     id="path14"
     style="stroke:#000000;stroke-width:1.88976378;stroke-opacity:1;stroke-dasharray:none;fill:#ff0000;fill-opacity:1" />
  <path
     class="cls-1"
     d="m 411.03954,383.42438 h -18.56042 v -53.35312 h -17.78437 v -16.10294 h 55.03454 v 16.10294 h -18.68975 z"
     id="path15"
     style="stroke:#000000;stroke-width:1.88976378;stroke-opacity:1;stroke-dasharray:none;fill:#ff0000;fill-opacity:1" />
  <path
     class="cls-1"
     d="m 472.34712,353.09394 c 25.86818,1.87544 32.33522,5.10896 32.33522,25.28614 0,14.48618 0.58203,28.77835 -38.02622,28.77835 -22.37597,0 -37.25018,-0.45269 -37.25018,-29.29571 h 22.50532 c 0,9.1832 3.29819,10.08859 14.74486,10.08859 11.44667,0 14.61552,-0.71138 14.61552,-8.0838 0,-7.37243 -1.29341,-7.50177 -12.28738,-8.14848 l -5.17364,-0.38802 c -21.59993,-1.48742 -34.27534,-1.42275 -34.27534,-26.57955 0,-25.15681 14.16283,-26.77357 37.12084,-26.77357 19.40113,0 35.56874,0 35.56874,24.5101 v 3.68621 h -22.44064 c 0,-8.98919 -3.75089,-8.98919 -12.93409,-8.98919 -12.93408,0 -13.71013,2.52215 -13.71013,7.43711 0,7.04907 3.42753,7.30775 9.57123,7.76045 z"
     id="path16"
     style="stroke:#000000;stroke-width:1.88976378;stroke-opacity:1;stroke-dasharray:none;fill:#ff0000;fill-opacity:1" />
  <metadata
     id="metadata16">
    <rdf:RDF>
      <cc:Work
         rdf:about="">
        <dc:title>logo_nocolour</dc:title>
      </cc:Work>
    </rdf:RDF>
  </metadata>
</svg>
